<?xml version="1.0" encoding="utf-8"?>
<!-- Generator: Adobe Illustrator 18.1.0, SVG Export Plug-In . SVG Version: 6.00 Build 0)  -->
<!DOCTYPE svg PUBLIC "-//W3C//DTD SVG 1.1//EN" "http://www.w3.org/Graphics/SVG/1.1/DTD/svg11.dtd">
<svg version="1.1" id="Layer_1" xmlns="http://www.w3.org/2000/svg" xmlns:xlink="http://www.w3.org/1999/xlink" x="0px" y="0px"
	 viewBox="0 0 175 175" enable-background="new 0 0 175 175" xml:space="preserve">
<path fill="#CCE7F2" d="M149,110.9l-64.7,37.4l3.5,6.1c1.1,1.9,3.6,2.6,5.5,1.5l57.8-33.4c1.9-1.1,2.6-3.6,1.5-5.5L149,110.9z"/>
<g>
	<path fill="none" stroke="#3F6689" stroke-width="2" stroke-miterlimit="10" d="M69.5,30.7l21.2-12.3c2.4-1.4,5.5-0.6,6.8,1.8
		l55.7,96.4c1.4,2.4,0.6,5.5-1.8,6.8L94,156.7c-2.4,1.4-5.5,0.6-6.8-1.8L31.5,58.4C30.1,56,31,53,33.4,51.6l23-13.3"/>
</g>
<rect x="52.7" y="19.7" transform="matrix(0.866 -0.5 0.5 0.866 -7.1886 34.1311)" fill="none" stroke="#3F6689" stroke-width="1.1916" stroke-linejoin="round" stroke-miterlimit="10" width="14.9" height="21.6"/>
<circle fill="none" stroke="#3F6689" stroke-miterlimit="10" cx="58.9" cy="28.5" r="3.2"/>
<g>
	<path fill="#CCE7F2" stroke="#3F6689" stroke-linejoin="round" stroke-miterlimit="10" d="M95.9,112.7c-0.8,0.2-0.7,2-1.2,2.5
		c-0.3-0.3-1.9-1.3-2.3-1c-0.4,0.3-0.8,0.8-1,1.5c-0.3-1.3-1.1-3.5-1.7-4.6c-0.5,0.6-1.3,1.9-1.3,1.9c-0.5-2.4-4.9-11-4.9-15.4
		c0-5.5,5.1-9.6,7.8-11.2c1.6-1,5.5-1.3,5.5-1.3s2.2-1.9,3.2-2.2c2.7-0.6,3.6,0.2,4.7,0.7c1.8,0.9,6.6,7.7,11.5,13
		c0,0-2.6,0.8-2.5,1.5c0.1,0.7,1,2.1,1.7,2.2c-0.5,0.6-1.6,1-1.5,1.8c0.2,0.8,1.4,2,1.4,2l-3-0.8"/>
	<g>
		<path fill="none" stroke="#3F6689" stroke-miterlimit="10" d="M139.6,116.4c-7.3-14.6-12.4-7.7-17.6-5.7
			c-3.6,1.4-4.3,17.2-5.9,18.1c-1.6,1-15.1-6.5-17.9-4.1c-4,3.6-9.8,5.3-3.6,17.7"/>
		<path fill="#FFFFFF" stroke="#3F6689" stroke-linejoin="round" stroke-miterlimit="10" d="M108.9,94.7c0.1-0.1,0.2-0.2,0.3-0.2
			c0.6-0.2,1.6,0.9,2.2,2.4c0.6,1.5,0.6,2.9,0,3.1c-0.1,0-0.1,0-0.2,0c3.2,6.6,1.3,14.4-2.1,16.3c-3.6,2.1-11-0.1-15.2-6
			c-0.5,0.3-1.7-0.4-2.7-1.6c-1.1-1.3-1.5-2.6-1.1-3.1c0.1-0.1,0.2-0.2,0.5-0.1c0.8-0.9,5.2-6.6,8.4-8.6c0.3-0.2,0.7-1.6,0.3-2.6
			c0.5-0.2,1.5,1.7,1.8,1.7c0.7-2.3,1.3-3.6-0.6-6.2c2.4,1.7,3.6,3.6,4.9,3.7L108.9,94.7z"/>
		<path fill="none" stroke="#3F6689" stroke-linecap="round" stroke-miterlimit="10" d="M99.9,124.3c4-3,4.1-5,3.1-7"/>
		<path fill="none" stroke="#3F6689" stroke-linecap="round" stroke-miterlimit="10" d="M120.1,112.5c-4.5,2-6.6,1.5-7.9-0.3"/>
	</g>
	<path fill="none" stroke="#3F6689" stroke-miterlimit="10" d="M104.1,112.4c1.4-0.4,3.4-1.7,4-2.2c0.6-0.5,1.5-1.6,1.2-2"/>
</g>
<path fill="none" stroke="#3F6689" stroke-miterlimit="10" d="M72,35.2l2.2-1.3c0.6-0.4,1.4-0.1,1.8,0.5v0c0.4,0.6,0.1,1.4-0.5,1.8
	L57,47c-0.6,0.4-1.4,0.1-1.8-0.5l0,0c-0.4-0.6-0.1-1.4,0.5-1.8l2.5-1.5"/>
<text transform="matrix(0.866 -0.5 0.5 0.866 70.5846 75.6128)" fill="#3F6689" font-family="'WhitneySSm-Light'" font-size="12">Jane</text>
<line fill="none" stroke="#BECCD3" stroke-miterlimit="10" stroke-dasharray="2,2" x1="62.5" y1="86.9" x2="105.8" y2="61.9"/>
<g opacity="0.2">
	
		<line fill="none" stroke="#3F6689" stroke-width="2" stroke-linejoin="round" stroke-miterlimit="10" x1="86" y1="156.1" x2="30" y2="59.1"/>
</g>
</svg>
